<?xml version="1.0" standalone="no"?>
<!DOCTYPE svg PUBLIC "-//W3C//DTD SVG 20010904//EN"
 "http://www.w3.org/TR/2001/REC-SVG-20010904/DTD/svg10.dtd">
<svg version="1.0" xmlns="http://www.w3.org/2000/svg"
 width="716.000000pt" height="716.000000pt" viewBox="0 0 716.000000 716.000000"
 preserveAspectRatio="xMidYMid meet">
<metadata>
Created by potrace 1.11, written by Peter Selinger 2001-2013
</metadata>
<g transform="translate(0.000000,716.000000) scale(0.100000,-0.100000)"
fill="#000000" stroke="none">
<path d="M2965 6998 c-8 -53 -2 -87 29 -169 35 -94 74 -273 96 -439 6 -47 13
-95 15 -107 25 -152 26 -849 0 -981 -2 -11 -7 -66 -11 -123 -15 -197 -2 -306
46 -384 23 -37 94 -70 178 -82 48 -6 201 -6 237 1 11 2 51 7 88 11 61 7 73 12
104 44 86 87 114 209 109 466 -2 99 -6 191 -9 205 -4 14 -11 56 -17 95 -29
186 -170 685 -247 880 -129 323 -287 503 -525 599 -37 14 -71 26 -77 26 -5 0
-13 -19 -16 -42z"/>
<path d="M4164 6783 c10 -32 47 -293 61 -428 3 -33 8 -80 11 -105 7 -66 7
-275 -1 -345 -8 -83 -64 -359 -99 -490 -2 -5 -6 -23 -11 -40 -4 -16 -25 -91
-46 -165 -43 -151 -52 -230 -34 -306 25 -108 119 -221 225 -271 68 -32 178
-39 257 -16 50 15 52 17 83 87 219 488 77 1438 -289 1931 -80 108 -171 194
-157 148z"/>
<path d="M2130 6345 c0 -14 18 -80 40 -147 38 -117 73 -252 85 -328 3 -19 7
-46 10 -60 31 -177 18 -442 -32 -655 -40 -171 -42 -185 -42 -270 -1 -131 39
-243 120 -338 48 -56 70 -59 193 -27 159 40 276 120 323 220 55 118 53 233 -6
467 -11 43 -27 114 -36 158 -38 189 -149 467 -255 635 -117 187 -210 288 -310
338 -76 39 -90 40 -90 7z"/>
<path d="M5309 6103 c-1 -118 -2 -129 -25 -248 -20 -102 -67 -241 -159 -474
-102 -260 -193 -523 -210 -612 -45 -239 41 -437 219 -499 100 -36 289 -22 329
23 35 40 122 393 142 577 4 36 9 74 12 85 13 53 11 507 -3 624 -36 320 -74
429 -189 547 -33 33 -98 84 -108 84 -4 0 -7 -48 -8 -107z"/>
<path d="M1544 5317 c-126 -144 -184 -275 -235 -531 -37 -181 -49 -390 -29
-488 18 -90 74 -206 123 -256 110 -114 286 -141 397 -62 18 13 52 50 76 83
l44 59 -3 142 c-3 125 -6 149 -30 209 -14 37 -53 105 -86 150 -129 179 -170
308 -176 551 -2 80 -8 143 -14 149 -19 19 -48 17 -67 -6z"/>
<path d="M7149 4803 c-4 -162 -3 -254 2 -313 3 -36 6 32 7 153 1 119 0 217 -3
217 -3 0 -6 -26 -6 -57z"/>
<path d="M3781 4613 c-85 -30 -259 -139 -377 -236 -160 -133 -222 -169 -275
-160 -74 11 -91 38 -109 173 -18 141 -38 165 -102 122 -51 -34 -79 -78 -179
-282 -55 -112 -112 -218 -126 -235 -43 -50 -87 -75 -135 -75 -37 0 -46 4 -65
33 -13 18 -34 65 -47 105 -30 89 -55 132 -76 132 -29 0 -70 -55 -100 -133 -35
-90 -61 -195 -95 -391 -37 -213 -61 -268 -132 -301 -35 -17 -38 -17 -71 1 -19
10 -60 49 -90 87 -49 61 -106 106 -118 94 -11 -11 -30 -191 -28 -262 4 -105 9
-136 49 -357 19 -103 35 -206 35 -228 0 -44 -22 -101 -46 -121 -26 -22 -106
-11 -214 30 -57 22 -107 38 -111 35 -9 -5 0 -77 18 -148 16 -64 59 -158 89
-192 85 -99 106 -123 129 -149 45 -50 105 -143 135 -208 43 -92 43 -110 -1
-155 -31 -32 -72 -44 -187 -57 -30 -3 -67 -12 -83 -21 l-30 -15 22 -32 c50
-72 114 -118 284 -204 221 -111 277 -153 323 -240 32 -60 -7 -98 -158 -153
-47 -17 -96 -39 -110 -50 -25 -19 -25 -19 -5 -34 40 -30 182 -95 260 -119 84
-26 160 -42 255 -52 147 -16 239 -49 298 -106 53 -51 55 -62 24 -102 -15 -20
-55 -56 -89 -81 -51 -37 -93 -87 -93 -109 0 -18 78 -30 203 -31 166 -1 195 2
451 50 198 37 267 29 317 -35 28 -36 20 -76 -32 -163 -31 -51 -43 -81 -43
-111 l-1 -42 62 1 c104 2 198 57 461 267 134 106 199 137 269 127 70 -11 93
-48 108 -180 8 -66 21 -129 29 -137 3 -3 25 7 48 23 49 34 119 126 155 203
125 274 179 353 273 401 l43 22 34 -34 c23 -23 45 -65 69 -129 20 -51 47 -109
61 -128 25 -32 27 -33 40 -15 65 86 134 297 158 478 11 89 35 214 45 243 31
81 98 139 147 127 15 -4 65 -45 114 -96 48 -48 94 -88 102 -88 22 0 30 96 25
307 -4 150 -10 204 -38 345 -31 155 -32 171 -21 224 15 66 47 104 88 104 16 0
62 -16 103 -36 40 -19 90 -36 109 -37 33 -2 35 0 43 37 10 49 -6 104 -70 231
-55 111 -131 221 -209 303 -112 117 -131 209 -55 272 42 35 77 46 177 56 39 3
80 10 93 15 21 8 22 10 8 37 -33 63 -141 138 -381 262 -197 102 -219 118 -241
176 -17 44 -17 47 0 79 22 40 68 66 166 95 41 12 87 31 103 42 l28 20 -23 17
c-41 32 -131 79 -203 106 -72 28 -255 68 -360 80 -168 18 -233 44 -269 107
-37 63 -15 108 89 183 36 25 72 59 80 76 9 16 14 29 13 30 -2 1 -37 7 -78 14
-176 29 -365 15 -598 -45 -63 -17 -131 -30 -151 -30 -55 0 -130 29 -148 56
-26 41 -13 112 36 193 24 39 45 89 48 111 l6 41 -44 -3 c-24 -1 -72 -12 -108
-25z m-33 -2040 c66 -31 107 -85 122 -158 14 -67 7 -114 -26 -182 -32 -65 -83
-109 -152 -129 -68 -20 -125 -12 -185 25 -85 54 -132 150 -125 256 5 75 37
131 99 172 83 55 174 61 267 16z"/>
</g>
</svg>
