<?xml version="1.0" encoding="utf-8"?>
<!-- Generator: Adobe Illustrator 24.1.2, SVG Export Plug-In . SVG Version: 6.00 Build 0)  -->
<svg version="1.1" id="Layer_1" xmlns="http://www.w3.org/2000/svg" xmlns:xlink="http://www.w3.org/1999/xlink" x="0px" y="0px"
	 viewBox="0 0 232 232" style="enable-background:new 0 0 232 232;" xml:space="preserve">
<style type="text/css">
	.st0{fill:#E18227;}
	.st1{fill:#211F20;}
	.st2{fill:#221F20;}
	.st3{fill:#221F21;}
	.st4{fill:#222020;}
	.st5{fill:#DF8229;}
</style>
<g>
	<g>
		<path class="st0" d="M232,232c-77.33,0-154.67,0-232,0C0,154.67,0,77.33,0,0c77.33,0,154.67,0,232,0C232,77.33,232,154.67,232,232
			z M61.81,137.19c0.18,3.76,1.31,6.66,3.66,9.22c2.7,2.92,5.2,6,6.3,9.68c-1.43,4.03-5.44,1.96-8.08,3.71
			c3.52,6.42,12.86,5.43,15.43,12.38c-1.67,3.11-5.31,2.24-7.36,4.43c3.97,2.62,8.18,3.89,12.74,4.33c3.26,0.32,6.49,0.99,8.35,3.98
			c-0.82,2.86-4.21,3.05-4.95,5.58c0.93,0.88,1.99,0.6,2.94,0.72c4.89,0.62,9.58-0.74,14.33-1.51c2.51-0.4,4.97-0.74,6.46,1.81
			c0.12,2.7-2.69,4.26-2.45,6.87c2.69,0.51,4.66-0.63,6.41-1.75c2.66-1.69,5.07-3.77,7.54-5.74c2.06-1.65,4.2-2.69,6.7-1.49
			c1.55,2.16,0.74,4.88,1.83,7.3c6.48-3.69,5.26-13.04,12.32-15.69c2.97,1.83,2.3,5.58,4.71,7.7c3.03-4.61,3.57-9.59,4.32-14.49
			c0.41-2.72,0.98-5.2,3.58-6.43c2.99,0.44,3.49,3.69,6.19,4.69c0.58-5.17,0.53-10.05-0.55-14.94c-0.63-2.84-1.68-5.82,0.4-8.38
			c2.79-1.11,4.59,1.91,6.97,1.53c0.58-1.32,0.32-2.27-0.03-3.22c-1.21-3.3-2.95-6.25-5.2-9c-1.69-2.06-4.31-3.89-3.54-6.97
			c1.98-3.12,5.26-1.98,7.94-2.9c-0.71-1.92-2.18-2.7-3.52-3.63c-2.33-1.62-4.92-2.75-7.41-4.09c-2.07-1.11-4.78-2-4.54-5
			c1.39-3.22,5.11-2.08,7.28-4.19c-4.45-3.38-9.35-4.17-14.31-4.79c-2.79-0.35-5.69-0.62-6.67-3.63c0.39-3.16,3.93-3.22,4.99-5.86
			c-5.89-1.25-11.28-0.75-16.55,0.89c-2.54,0.79-4.83,0.92-6.88-0.58c-1.74-3.56,2.34-5.36,2.09-8.44c-2.65-0.02-4.94,1.1-6.99,2.39
			c-2.94,1.85-5.68,4.05-8.4,6.23c-1.68,1.35-3.3,2.27-5.4,1c-1.52-2.1-0.65-4.88-1.94-7.11c-2.36,0.41-3.19,2.39-4.16,4.03
			c-1.17,1.99-1.9,4.25-3,6.29c-1.24,2.32-2.45,4.83-5.78,4.47c-2.14-1.71-1.68-4.72-3.59-6.64c-1.18,0.58-1.69,1.46-2.15,2.6
			c-1.55,3.91-2.1,8.03-2.86,12.12c-0.45,2.44-1.01,4.93-3.75,5.58c-2.8-0.68-3.17-3.99-5.78-4.75c-1.56,6.01-0.03,11.52,0.96,17.06
			c0.4,2.25,1.2,4.6-1.04,6.41C66.73,139.62,64.66,137.75,61.81,137.19z M118.09,86.85c2.61-2.29,3.11-4.89,3.39-7.84
			c0.73-7.49-1.29-14.56-3.15-21.58c-1.48-5.58-3.11-11.22-6.09-16.3c-2.68-4.58-6.33-7.88-11.71-9.42c-0.6,1.62-0.46,2.69,0,3.81
			c1.52,3.72,2.18,7.67,2.74,11.61c1.34,9.44,1.05,18.9,0.17,28.36c-0.35,3.76-0.82,7.62,1.5,10.71
			C109.48,88.48,113.74,87.36,118.09,86.85z M129.03,37.46c1.28,8.62,2.86,16.92,1.11,25.45c-1.01,4.9-2.23,9.72-3.65,14.49
			c-1.16,3.89-0.58,7.23,2.37,10.05c2.96,2.83,6.34,3.32,9.92,1.81C146.04,76.4,140.61,47.27,129.03,37.46z M159.65,97.95
			c0.43-0.55,0.72-0.78,0.82-1.08c3.78-11.79,4.59-23.82,2.34-35.96c-0.63-3.4-2.17-6.78-6.31-9.33c0.86,10.29-4.25,18.23-7,26.86
			c-0.96,3-2.34,5.83-2.66,9.06C146.01,95.77,151.43,100.34,159.65,97.95z M85.63,92.56c0.94-0.09,1.61-0.1,2.25-0.23
			c8.21-1.68,11.16-6.21,9.31-14.24c-0.37-1.62-0.83-3.21-1.16-4.84c-1.53-7.59-4.43-14.55-9.23-20.7
			c-1.73-2.23-3.57-4.03-6.68-4.82c0.16,1.08,0.15,1.59,0.32,2.03c3.64,9.55,4.59,19.18,1.77,29.21
			C80.88,83.71,81.45,88.54,85.63,92.56z M74.84,101.69c0.6-4.51,0.06-8.62-2.54-11.77c-3.92-4.76-4.67-10.09-4.41-15.86
			c0.03-0.6,0.17-1.36-1.17-1.51c-4.44,4.04-5.66,9.78-6.65,15.43c-0.68,3.87-1.04,7.92,0.41,11.84c1.25,3.39,3.44,5.65,7.11,6.19
			C71.09,106.54,73.2,104.6,74.84,101.69z"/>
		<path class="st1" d="M61.81,137.19c2.85,0.56,4.92,2.43,7.58,1.82c2.25-1.81,1.45-4.16,1.04-6.41c-1-5.54-2.52-11.05-0.96-17.06
			c2.61,0.76,2.99,4.07,5.78,4.75c2.74-0.65,3.3-3.14,3.75-5.58c0.75-4.09,1.3-8.21,2.86-12.12c0.45-1.14,0.96-2.02,2.15-2.6
			c1.91,1.93,1.44,4.93,3.59,6.64c3.33,0.36,4.54-2.16,5.78-4.47c1.1-2.05,1.82-4.3,3-6.29c0.97-1.64,1.8-3.63,4.16-4.03
			c1.29,2.23,0.42,5.01,1.94,7.11c2.1,1.27,3.72,0.34,5.4-1.01c2.72-2.18,5.46-4.38,8.4-6.23c2.05-1.29,4.34-2.41,6.99-2.39
			c0.25,3.08-3.83,4.88-2.09,8.44c2.05,1.5,4.33,1.37,6.88,0.58c5.27-1.64,10.66-2.13,16.55-0.89c-1.06,2.64-4.6,2.7-4.99,5.86
			c0.98,3.01,3.88,3.28,6.67,3.63c4.97,0.62,9.86,1.41,14.31,4.79c-2.16,2.11-5.89,0.97-7.28,4.19c-0.24,3,2.46,3.89,4.54,5
			c2.48,1.33,5.08,2.47,7.41,4.09c1.34,0.93,2.81,1.71,3.52,3.63c-2.68,0.92-5.95-0.22-7.94,2.9c-0.77,3.08,1.85,4.91,3.54,6.97
			c2.25,2.74,3.99,5.7,5.2,9c0.35,0.94,0.61,1.89,0.03,3.22c-2.38,0.38-4.18-2.64-6.97-1.53c-2.07,2.56-1.02,5.55-0.4,8.38
			c1.08,4.9,1.13,9.77,0.55,14.94c-2.7-1-3.2-4.26-6.19-4.69c-2.6,1.23-3.17,3.71-3.58,6.43c-0.75,4.89-1.29,9.88-4.32,14.49
			c-2.42-2.12-1.74-5.87-4.71-7.7c-7.06,2.65-5.84,12-12.32,15.69c-1.09-2.43-0.28-5.14-1.83-7.3c-2.51-1.2-4.64-0.16-6.7,1.49
			c-2.47,1.97-4.88,4.05-7.54,5.74c-1.76,1.11-3.72,2.26-6.41,1.75c-0.23-2.61,2.58-4.17,2.45-6.87c-1.49-2.55-3.95-2.21-6.46-1.81
			c-4.75,0.76-9.44,2.13-14.33,1.51c-0.95-0.12-2,0.16-2.94-0.72c0.74-2.53,4.12-2.71,4.95-5.58c-1.86-2.99-5.09-3.67-8.35-3.98
			c-4.56-0.44-8.77-1.72-12.74-4.33c2.05-2.19,5.69-1.32,7.36-4.43c-2.57-6.95-11.91-5.96-15.43-12.38
			c2.63-1.75,6.64,0.32,8.08-3.71c-1.1-3.68-3.6-6.77-6.3-9.68C63.11,143.86,61.99,140.96,61.81,137.19z M122.1,144.13
			c0.07-3.44-2.29-5.91-5.77-6.05c-3.35-0.13-6.23,2.4-6.32,5.55c-0.1,3.46,2.67,6.68,5.85,6.8
			C119.21,150.56,122.03,147.71,122.1,144.13z"/>
		<path class="st2" d="M118.09,86.85c-4.35,0.51-8.61,1.63-13.16-0.66c-2.32-3.09-1.85-6.94-1.5-10.71
			c0.88-9.47,1.17-18.92-0.17-28.36c-0.56-3.94-1.22-7.89-2.74-11.61c-0.46-1.12-0.6-2.19,0-3.81c5.38,1.54,9.03,4.84,11.71,9.42
			c2.98,5.08,4.6,10.72,6.09,16.3c1.87,7.02,3.88,14.09,3.15,21.58C121.2,81.96,120.7,84.56,118.09,86.85z"/>
		<path class="st3" d="M129.03,37.46c11.58,9.8,17.01,38.94,9.74,51.8c-3.58,1.51-6.96,1.03-9.92-1.81
			c-2.95-2.82-3.53-6.16-2.37-10.05c1.43-4.77,2.65-9.59,3.65-14.49C131.89,54.38,130.31,46.08,129.03,37.46z"/>
		<path class="st4" d="M159.65,97.95c-8.22,2.39-13.65-2.18-12.81-10.45c0.32-3.23,1.71-6.06,2.66-9.06
			c2.75-8.63,7.86-16.56,7-26.86c4.14,2.54,5.68,5.93,6.31,9.33c2.25,12.13,1.44,24.17-2.34,35.96
			C160.38,97.16,160.08,97.4,159.65,97.95z"/>
		<path class="st3" d="M85.63,92.56c-4.18-4.03-4.75-8.86-3.42-13.6c2.82-10.03,1.87-19.65-1.77-29.21
			c-0.17-0.44-0.16-0.96-0.32-2.03c3.11,0.79,4.94,2.6,6.68,4.82c4.8,6.16,7.7,13.11,9.23,20.7c0.33,1.62,0.78,3.22,1.16,4.84
			c1.85,8.04-1.1,12.56-9.31,14.24C87.24,92.46,86.57,92.47,85.63,92.56z"/>
		<path class="st4" d="M74.84,101.69c-1.64,2.91-3.75,4.84-7.25,4.32c-3.67-0.55-5.86-2.8-7.11-6.19
			c-1.45-3.91-1.09-7.97-0.41-11.84c1-5.65,2.21-11.39,6.65-15.43c1.34,0.14,1.2,0.91,1.17,1.51c-0.26,5.77,0.5,11.1,4.41,15.86
			C74.9,93.07,75.44,97.18,74.84,101.69z"/>
		<path class="st5" d="M122.1,144.13c-0.08,3.58-2.9,6.42-6.24,6.3c-3.18-0.12-5.95-3.34-5.85-6.8c0.09-3.15,2.97-5.68,6.32-5.55
			C119.82,138.22,122.18,140.7,122.1,144.13z"/>
	</g>
</g>
</svg>
